<svg width="24" height="23" viewBox="0 0 24 23" fill="none" xmlns="http://www.w3.org/2000/svg">
<path d="M21.0006 11.4999C21.0006 11.6988 20.9216 11.8896 20.7809 12.0303C20.6403 12.1709 20.4495 12.2499 20.2506 12.2499H5.5609L11.0312 17.7193C11.1009 17.789 11.1562 17.8717 11.1939 17.9628C11.2316 18.0538 11.251 18.1514 11.251 18.2499C11.251 18.3485 11.2316 18.4461 11.1939 18.5371C11.1562 18.6281 11.1009 18.7109 11.0312 18.7806C10.9615 18.8502 10.8788 18.9055 10.7878 18.9432C10.6967 18.9809 10.5991 19.0003 10.5006 19.0003C10.402 19.0003 10.3045 18.9809 10.2134 18.9432C10.1224 18.9055 10.0396 18.8502 9.96996 18.7806L3.21996 12.0306C3.15023 11.9609 3.09491 11.8782 3.05717 11.7871C3.01943 11.6961 3 11.5985 3 11.4999C3 11.4014 3.01943 11.3038 3.05717 11.2127C3.09491 11.1217 3.15023 11.039 3.21996 10.9693L9.96996 4.2193C10.1107 4.07857 10.3016 3.99951 10.5006 3.99951C10.6996 3.99951 10.8905 4.07857 11.0312 4.2193C11.1719 4.36003 11.251 4.55091 11.251 4.74993C11.251 4.94895 11.1719 5.13982 11.0312 5.28055L5.5609 10.7499H20.2506C20.4495 10.7499 20.6403 10.8289 20.7809 10.9696C20.9216 11.1103 21.0006 11.301 21.0006 11.4999Z" fill="black"/>
</svg>
