<svg width="17" height="20" viewBox="0 0 17 20" fill="none" xmlns="http://www.w3.org/2000/svg">
<path d="M9.9169 1.29167C9.9169 1.0817 9.99152 0.880339 10.1244 0.731873C10.2572 0.583406 10.4374 0.5 10.6252 0.5H16.2917C16.4795 0.5 16.6597 0.583406 16.7925 0.731873C16.9254 0.880339 17 1.0817 17 1.29167V18.7083C17 18.9183 16.9254 19.1197 16.7925 19.2681C16.6597 19.4166 16.4795 19.5 16.2917 19.5H10.6252C10.4374 19.5 10.2572 19.4166 10.1244 19.2681C9.99152 19.1197 9.9169 18.9183 9.9169 18.7083C9.9169 18.4984 9.99152 18.297 10.1244 18.1485C10.2572 18.0001 10.4374 17.9167 10.6252 17.9167H15.5834V2.08333H10.6252C10.4374 2.08333 10.2572 1.99993 10.1244 1.85146C9.99152 1.70299 9.9169 1.50163 9.9169 1.29167ZM0.207738 10.5601L3.74929 14.5184C3.8822 14.667 4.06246 14.7504 4.25042 14.7504C4.43838 14.7504 4.61864 14.667 4.75155 14.5184C4.88445 14.3699 4.95912 14.1684 4.95912 13.9583C4.95912 13.7483 4.88445 13.5468 4.75155 13.3982L2.41855 10.7917H10.6252C10.8131 10.7917 10.9932 10.7083 11.1261 10.5598C11.2589 10.4113 11.3335 10.21 11.3335 10C11.3335 9.79004 11.2589 9.58867 11.1261 9.44021C10.9932 9.29174 10.8131 9.20833 10.6252 9.20833H2.41855L4.75155 6.60177C4.88445 6.45322 4.95912 6.25175 4.95912 6.04167C4.95912 5.83159 4.88445 5.63011 4.75155 5.48156C4.61864 5.33301 4.43838 5.24956 4.25042 5.24956C4.06246 5.24956 3.8822 5.33301 3.74929 5.48156L0.207738 9.4399C0.141881 9.51342 0.089636 9.60073 0.0539908 9.69684C0.0183456 9.79295 -3.79152e-07 9.89596 -3.79152e-07 10C-3.79152e-07 10.104 0.0183456 10.2071 0.0539908 10.3032C0.089636 10.3993 0.141881 10.4866 0.207738 10.5601Z" fill="#E63946"/>
</svg>
