<svg width="18" height="20" viewBox="0 0 18 20" fill="none" xmlns="http://www.w3.org/2000/svg">
<path d="M17.0644 14.3797C16.5729 13.5064 15.8423 11.0354 15.8423 7.80801C15.8423 5.8698 15.0959 4.01098 13.7673 2.64047C12.4387 1.26995 10.6367 0.5 8.75777 0.5C6.87883 0.5 5.07684 1.26995 3.74823 2.64047C2.41962 4.01098 1.67321 5.8698 1.67321 7.80801C1.67321 11.0363 0.941729 13.5064 0.450237 14.3797C0.324726 14.6018 0.258188 14.854 0.257333 15.111C0.256477 15.368 0.321335 15.6207 0.445366 15.8436C0.569396 16.0665 0.748214 16.2517 0.963784 16.3806C1.17935 16.5095 1.42406 16.5774 1.67321 16.5776H5.28722C5.45067 17.4027 5.88535 18.1441 6.51775 18.6766C7.15014 19.2091 7.94143 19.5 8.75777 19.5C9.57411 19.5 10.3654 19.2091 10.9978 18.6766C11.6302 18.1441 12.0649 17.4027 12.2283 16.5776H15.8423C16.0914 16.5773 16.336 16.5092 16.5514 16.3803C16.7669 16.2513 16.9456 16.0661 17.0695 15.8432C17.1934 15.6203 17.2582 15.3677 17.2573 15.1108C17.2564 14.8538 17.1899 14.6017 17.0644 14.3797ZM8.75777 18.0392C8.31837 18.0391 7.8898 17.8985 7.53107 17.6367C7.17234 17.375 6.90108 17.005 6.75461 16.5776H10.7609C10.6145 17.005 10.3432 17.375 9.98446 17.6367C9.62573 17.8985 9.19717 18.0391 8.75777 18.0392ZM1.67321 15.116C2.3551 13.9065 3.09012 11.1039 3.09012 7.80801C3.09012 6.25744 3.68725 4.77039 4.75014 3.67397C5.81303 2.57756 7.25461 1.9616 8.75777 1.9616C10.2609 1.9616 11.7025 2.57756 12.7654 3.67397C13.8283 4.77039 14.4254 6.25744 14.4254 7.80801C14.4254 11.1012 15.1587 13.9038 15.8423 15.116H1.67321Z" fill="#1C7FBF"/>
</svg>
