<svg width="104" height="104" viewBox="0 0 104 104" fill="none" xmlns="http://www.w3.org/2000/svg">
<path d="M96.2005 76.4118L60.6739 14.7146C59.7861 13.2031 58.5187 11.9498 56.9974 11.079C55.476 10.2081 53.7534 9.75 52.0005 9.75C50.2475 9.75 48.5249 10.2081 47.0035 11.079C45.4822 11.9498 44.2148 13.2031 43.327 14.7146L7.80045 76.4118C6.94625 77.8738 6.49609 79.5367 6.49609 81.2299C6.49609 82.9232 6.94625 84.5861 7.80045 86.0481C8.67686 87.5688 9.94208 88.8289 11.4663 89.6992C12.9905 90.5694 14.7188 91.0185 16.4739 91.0003H87.527C89.2807 91.017 91.0073 90.5673 92.53 89.6971C94.0527 88.8269 95.3166 87.5676 96.1923 86.0481C97.0478 84.5868 97.4993 82.9243 97.5007 81.2311C97.5022 79.5378 97.0534 77.8746 96.2005 76.4118ZM48.7505 42.2503C48.7505 41.3883 49.0929 40.5617 49.7024 39.9522C50.3118 39.3427 51.1385 39.0003 52.0005 39.0003C52.8624 39.0003 53.6891 39.3427 54.2985 39.9522C54.908 40.5617 55.2505 41.3883 55.2505 42.2503V58.5003C55.2505 59.3622 54.908 60.1889 54.2985 60.7984C53.6891 61.4079 52.8624 61.7503 52.0005 61.7503C51.1385 61.7503 50.3118 61.4079 49.7024 60.7984C49.0929 60.1889 48.7505 59.3622 48.7505 58.5003V42.2503ZM52.0005 78.0003C51.0363 78.0003 50.0937 77.7143 49.292 77.1787C48.4904 76.643 47.8655 75.8816 47.4965 74.9908C47.1276 74.1001 47.031 73.1199 47.2191 72.1742C47.4072 71.2285 47.8715 70.3599 48.5533 69.6781C49.2351 68.9963 50.1037 68.532 51.0494 68.3439C51.995 68.1558 52.9752 68.2524 53.866 68.6214C54.7568 68.9903 55.5182 69.6152 56.0539 70.4169C56.5895 71.2186 56.8755 72.1611 56.8755 73.1253C56.8755 74.4182 56.3618 75.6582 55.4476 76.5724C54.5334 77.4866 53.2934 78.0003 52.0005 78.0003Z" fill="#CB9E3A"/>
</svg>
